<?xml version="1.0" encoding="utf-8"?>
<!-- Generator: Adobe Illustrator 18.1.1, SVG Export Plug-In . SVG Version: 6.00 Build 0)  -->
<svg version="1.1" id="Laag_1" xmlns="http://www.w3.org/2000/svg" xmlns:xlink="http://www.w3.org/1999/xlink" x="0px" y="0px"
	 viewBox="0 0 396.5 63.7" enable-background="new 0 0 396.5 63.7" xml:space="preserve">
<g>
	<path fill="#1F1D20" d="M50.2,15.5c0,1.6-0.4,3.1-1.2,4.6c-0.8,1.5-2,2.7-3.4,3.6c-1.5,0.9-2.9,1.3-4.2,1.3c-1.4,0-2.6-0.4-3.4-1.3
		c-0.9-0.9-1.3-2.1-1.3-3.5c0-1.5,0.4-3,1.3-4.5c0.9-1.5,2-2.7,3.5-3.6c1.5-0.9,2.9-1.3,4.2-1.3c1.4,0,2.5,0.5,3.3,1.3
		C49.8,12.9,50.2,14,50.2,15.5z M47.6,14.4c0-1-0.2-1.7-0.7-2.2c-0.5-0.5-1.1-0.8-1.8-0.8c-1.5,0-2.9,1.1-4.2,3.2
		c-1.3,2.2-1.9,4.3-1.9,6.4c0,1,0.3,1.7,0.7,2.2c0.5,0.5,1.1,0.8,1.9,0.8c1.4,0,2.8-1.1,4.1-3.2C47,18.8,47.6,16.6,47.6,14.4z"/>
	<path fill="#1F1D20" d="M68.4,11l-2.7,9.2c-0.4,1.4-0.6,2.2-0.6,2.6c0,0.2,0,0.3,0.1,0.4c0.1,0.1,0.2,0.1,0.3,0.1
		c0.2,0,0.4-0.1,0.6-0.2c0.2-0.2,0.7-0.8,1.6-1.9l0.5,0.4c-0.8,1.3-1.6,2.2-2.5,2.8c-0.6,0.4-1.1,0.6-1.6,0.6
		c-0.4,0-0.7-0.1-0.9-0.3c-0.2-0.2-0.3-0.5-0.3-0.9c0-0.4,0.1-0.8,0.2-1.4c0.2-0.8,0.6-2.4,1.4-5c-1.8,2.9-3.2,4.8-4.4,5.9
		c-1.2,1.1-2.3,1.6-3.3,1.6c-0.5,0-0.9-0.2-1.2-0.5c-0.3-0.3-0.5-0.7-0.5-1.2c0-0.8,0.2-2,0.7-3.5l1.3-4.8c0.3-1.1,0.5-1.8,0.5-2.1
		c0-0.1,0-0.2-0.1-0.3c-0.1-0.1-0.2-0.1-0.3-0.1c-0.2,0-0.4,0.1-0.6,0.2c-0.2,0.2-0.7,0.7-1.5,1.7l-0.5-0.3c0.8-1.2,1.6-2.1,2.4-2.6
		c0.7-0.4,1.3-0.7,1.8-0.7c0.4,0,0.7,0.1,0.9,0.4c0.2,0.2,0.4,0.5,0.4,0.9c0,0.5-0.2,1.6-0.6,3l-1.4,5c-0.4,1.4-0.6,2.2-0.6,2.6
		c0,0.2,0.1,0.4,0.2,0.5c0.1,0.1,0.3,0.2,0.5,0.2c0.3,0,0.8-0.2,1.3-0.5c0.5-0.3,1.3-1.1,2.2-2.3c0.9-1.2,1.7-2.3,2.3-3.3
		c0.6-1,1.2-2.6,1.9-4.9l0.3-1.2H68.4z"/>
	<path fill="#1F1D20" d="M79.7,6.8L78.5,11h2.4l-0.3,1h-2.4l-2.6,9.1c-0.3,1-0.4,1.6-0.4,1.9c0,0.2,0,0.3,0.1,0.4
		c0.1,0.1,0.2,0.1,0.3,0.1c0.3,0,0.6-0.2,1-0.5c0.2-0.2,0.8-0.8,1.6-1.9l0.5,0.4c-0.9,1.4-1.8,2.3-2.7,2.9c-0.6,0.4-1.2,0.6-1.7,0.6
		c-0.5,0-0.8-0.1-1.1-0.4c-0.3-0.3-0.4-0.6-0.4-1.1c0-0.5,0.2-1.4,0.5-2.5l2.6-8.9h-2.3l0.2-0.6c1.1-0.3,2.1-0.8,2.8-1.4
		c0.8-0.6,1.6-1.7,2.5-3.2H79.7z"/>
	<path fill="#1F1D20" d="M91.9,16.7l-0.6,2h-8l0.6-2H91.9z"/>
	<path fill="#1F1D20" d="M110,10.7l-3,10.4l-0.3,1.4c0,0.1,0,0.2,0,0.3c0,0.2,0,0.3,0.2,0.4c0.1,0.1,0.2,0.1,0.3,0.1
		c0.1,0,0.3-0.1,0.5-0.2c0.4-0.3,0.9-0.9,1.6-1.9l0.5,0.4c-0.7,1.1-1.4,1.9-2.2,2.4c-0.8,0.6-1.4,0.8-2.1,0.8c-0.4,0-0.8-0.1-1-0.3
		c-0.2-0.2-0.3-0.5-0.3-1c0-0.5,0.1-1.2,0.3-2l0.3-1.1c-1.3,1.8-2.6,3-3.7,3.7c-0.8,0.5-1.6,0.7-2.4,0.7c-0.7,0-1.4-0.3-1.9-0.9
		c-0.5-0.6-0.8-1.5-0.8-2.6c0-1.6,0.5-3.4,1.5-5.2c1-1.8,2.2-3.2,3.7-4.3c1.2-0.9,2.3-1.3,3.3-1.3c0.6,0,1.1,0.2,1.6,0.5
		c0.4,0.3,0.7,0.9,0.9,1.6l0.6-1.8L110,10.7z M104.5,11.5c-0.7,0-1.4,0.3-2.1,0.9c-1,0.9-2,2.2-2.8,3.9c-0.8,1.7-1.2,3.3-1.2,4.7
		c0,0.7,0.2,1.2,0.5,1.6c0.3,0.4,0.8,0.6,1.2,0.6c1.1,0,2.3-0.8,3.6-2.5c1.8-2.2,2.6-4.5,2.6-6.8c0-0.9-0.2-1.5-0.5-1.9
		C105.6,11.7,105.1,11.5,104.5,11.5z"/>
	<path fill="#1F1D20" d="M120.1,10.7l-2.1,7c1.9-2.9,3.4-4.7,4.4-5.7c1-0.9,2-1.4,2.9-1.4c0.5,0,0.9,0.2,1.3,0.5
		c0.3,0.3,0.5,0.8,0.5,1.3c0,0.6-0.1,1.4-0.4,2.5l-1.9,6.5c-0.2,0.8-0.3,1.2-0.3,1.4c0,0.1,0,0.3,0.1,0.4c0.1,0.1,0.2,0.1,0.3,0.1
		c0.1,0,0.3-0.1,0.4-0.2c0.5-0.4,1.1-1.1,1.8-2l0.5,0.3c-1,1.4-1.8,2.3-2.7,2.9c-0.6,0.4-1.1,0.6-1.6,0.6c-0.4,0-0.7-0.1-0.9-0.3
		c-0.2-0.2-0.3-0.5-0.3-0.9c0-0.5,0.2-1.3,0.5-2.5l1.8-6.2c0.2-0.8,0.3-1.4,0.3-1.8c0-0.2-0.1-0.4-0.2-0.5c-0.1-0.1-0.3-0.2-0.5-0.2
		c-0.3,0-0.6,0.1-1,0.4c-0.8,0.5-1.6,1.2-2.4,2.3c-0.8,1.1-1.7,2.4-2.6,4.1c-0.5,0.9-0.9,1.8-1.2,2.9l-0.8,2.5h-2.3l2.8-9.6
		c0.3-1.2,0.5-1.9,0.5-2.1c0-0.2-0.1-0.4-0.3-0.6c-0.2-0.2-0.4-0.3-0.7-0.3c-0.1,0-0.3,0-0.6,0.1l-0.6,0.1l-0.1-0.5L120.1,10.7z"/>
	<path fill="#1F1D20" d="M148.2,2.7l-5.3,18.2c-0.3,1-0.4,1.6-0.4,1.9c0,0.1,0,0.2,0.1,0.3c0.1,0.1,0.2,0.1,0.3,0.1
		c0.1,0,0.3-0.1,0.5-0.2c0.3-0.2,0.9-0.9,1.8-1.8l0.5,0.3c-0.7,1-1.5,1.9-2.2,2.5c-0.8,0.6-1.5,1-2.1,1c-0.3,0-0.6-0.1-0.9-0.4
		c-0.2-0.2-0.3-0.6-0.3-1c0-0.6,0.2-1.4,0.5-2.4l0.6-1.9c-1.5,2.3-2.8,3.9-4.1,4.8c-0.8,0.6-1.6,0.9-2.4,0.9c-0.8,0-1.5-0.3-2-1
		c-0.6-0.7-0.9-1.6-0.9-2.8c0-1.5,0.5-3.2,1.5-4.9c1-1.7,2.3-3.1,3.9-4.2c1.3-0.9,2.4-1.3,3.5-1.3c0.5,0,1,0.1,1.4,0.3
		c0.4,0.2,0.8,0.6,1.2,1.1l1.5-5.4c0.1-0.4,0.2-0.7,0.3-0.9c0.1-0.4,0.2-0.7,0.2-1c0-0.2-0.1-0.4-0.2-0.5C144.7,4.1,144.4,4,144,4
		c-0.2,0-0.6,0-1.2,0.1V3.6L148.2,2.7z M142.5,13.6c0-0.7-0.2-1.2-0.6-1.6c-0.4-0.4-0.9-0.6-1.5-0.6c-1.3,0-2.6,1.1-4,3.2
		c-1.4,2.1-2.1,4.2-2.1,6.1c0,0.8,0.2,1.4,0.5,1.8c0.3,0.4,0.7,0.6,1.2,0.6c1.1,0,2.4-1.2,4-3.5C141.7,17.4,142.5,15.4,142.5,13.6z"
		/>
	<path fill="#1F1D20" d="M158.5,16.7l-0.6,2h-8l0.6-2H158.5z"/>
	<path fill="#1F1D20" d="M176.4,15.5c0,1.6-0.4,3.1-1.2,4.6c-0.8,1.5-1.9,2.7-3.4,3.6c-1.5,0.9-2.9,1.3-4.2,1.3
		c-1.4,0-2.6-0.4-3.4-1.3c-0.9-0.9-1.3-2.1-1.3-3.5c0-1.5,0.4-3,1.3-4.5c0.9-1.5,2-2.7,3.5-3.6c1.5-0.9,2.9-1.3,4.2-1.3
		c1.3,0,2.5,0.5,3.3,1.3C175.9,12.9,176.4,14,176.4,15.5z M173.8,14.4c0-1-0.2-1.7-0.7-2.2c-0.5-0.5-1.1-0.8-1.8-0.8
		c-1.5,0-2.9,1.1-4.2,3.2c-1.3,2.2-1.9,4.3-1.9,6.4c0,1,0.3,1.7,0.7,2.2c0.5,0.5,1.1,0.8,1.9,0.8c1.5,0,2.8-1.1,4.1-3.2
		C173.2,18.8,173.8,16.6,173.8,14.4z"/>
	<path fill="#1F1D20" d="M194.6,11l-2.7,9.2c-0.4,1.4-0.6,2.2-0.6,2.6c0,0.2,0,0.3,0.1,0.4c0.1,0.1,0.2,0.1,0.3,0.1
		c0.2,0,0.4-0.1,0.6-0.2c0.2-0.2,0.7-0.8,1.6-1.9l0.5,0.4c-0.8,1.3-1.6,2.2-2.5,2.8c-0.6,0.4-1.1,0.6-1.6,0.6
		c-0.4,0-0.7-0.1-0.9-0.3c-0.2-0.2-0.3-0.5-0.3-0.9c0-0.4,0.1-0.8,0.2-1.4c0.2-0.8,0.6-2.4,1.4-5c-1.7,2.9-3.2,4.8-4.4,5.9
		c-1.2,1.1-2.3,1.6-3.3,1.6c-0.5,0-0.9-0.2-1.2-0.5c-0.3-0.3-0.5-0.7-0.5-1.2c0-0.8,0.2-2,0.7-3.5l1.3-4.8c0.3-1.1,0.5-1.8,0.5-2.1
		c0-0.1,0-0.2-0.1-0.3c-0.1-0.1-0.2-0.1-0.3-0.1c-0.2,0-0.4,0.1-0.6,0.2c-0.2,0.2-0.7,0.7-1.5,1.7l-0.5-0.3c0.8-1.2,1.6-2.1,2.4-2.6
		c0.7-0.4,1.3-0.7,1.8-0.7c0.4,0,0.7,0.1,0.9,0.4s0.4,0.5,0.4,0.9c0,0.5-0.2,1.6-0.6,3l-1.4,5c-0.4,1.4-0.6,2.2-0.6,2.6
		c0,0.2,0.1,0.4,0.2,0.5c0.1,0.1,0.3,0.2,0.5,0.2c0.3,0,0.8-0.2,1.3-0.5c0.5-0.3,1.3-1.1,2.2-2.3c0.9-1.2,1.7-2.3,2.2-3.3
		c0.6-1,1.2-2.6,1.9-4.9l0.3-1.2H194.6z"/>
	<path fill="#1F1D20" d="M205.9,6.8l-1.2,4.2h2.4l-0.3,1h-2.4l-2.6,9.1c-0.3,1-0.4,1.6-0.4,1.9c0,0.2,0,0.3,0.1,0.4
		c0.1,0.1,0.2,0.1,0.3,0.1c0.3,0,0.6-0.2,1-0.5c0.2-0.2,0.8-0.8,1.6-1.9l0.5,0.4c-0.9,1.4-1.8,2.3-2.7,2.9c-0.6,0.4-1.2,0.6-1.7,0.6
		c-0.5,0-0.8-0.1-1.1-0.4c-0.3-0.3-0.4-0.6-0.4-1.1c0-0.5,0.2-1.4,0.5-2.5l2.6-8.9h-2.3l0.2-0.6c1.1-0.3,2.1-0.8,2.8-1.4
		c0.8-0.6,1.6-1.7,2.5-3.2H205.9z"/>
	<path fill="#1F1D20" d="M226.9,6.8l-1.2,4.2h2.4l-0.3,1h-2.4l-2.6,9.1c-0.3,1-0.4,1.6-0.4,1.9c0,0.2,0,0.3,0.1,0.4
		c0.1,0.1,0.2,0.1,0.3,0.1c0.3,0,0.6-0.2,1-0.5c0.2-0.2,0.8-0.8,1.6-1.9l0.5,0.4c-1,1.4-1.8,2.3-2.7,2.9c-0.6,0.4-1.2,0.6-1.7,0.6
		c-0.5,0-0.8-0.1-1.1-0.4c-0.3-0.3-0.4-0.6-0.4-1.1c0-0.5,0.2-1.4,0.5-2.5l2.6-8.9h-2.3l0.2-0.6c1.1-0.3,2.1-0.8,2.8-1.4
		c0.8-0.6,1.6-1.7,2.5-3.2H226.9z"/>
	<path fill="#1F1D20" d="M239,2.7l-4.3,14.9c1.9-2.8,3.3-4.7,4.4-5.6c1.1-0.9,2.1-1.4,3-1.4c0.5,0,0.9,0.2,1.2,0.5
		c0.3,0.3,0.5,0.8,0.5,1.3c0,0.7-0.1,1.5-0.4,2.5l-1.9,6.4c-0.2,0.8-0.3,1.2-0.3,1.3c0,0.1,0,0.3,0.1,0.4c0.1,0.1,0.2,0.1,0.3,0.1
		c0.1,0,0.3-0.1,0.5-0.2c0.6-0.5,1.2-1.1,1.7-1.9l0.5,0.3c-0.4,0.5-0.8,1.1-1.5,1.8c-0.6,0.6-1.2,1.1-1.6,1.4
		c-0.4,0.3-0.8,0.4-1.2,0.4c-0.4,0-0.7-0.1-0.9-0.4c-0.2-0.2-0.4-0.5-0.4-0.9c0-0.5,0.2-1.3,0.5-2.5l1.8-6.2
		c0.2-0.8,0.3-1.4,0.3-1.8c0-0.2-0.1-0.4-0.2-0.5c-0.1-0.1-0.3-0.2-0.5-0.2c-0.3,0-0.6,0.1-1,0.3c-0.7,0.4-1.5,1.2-2.4,2.4
		c-0.3,0.3-1.1,1.6-2.5,3.8c-0.4,0.7-0.8,1.5-1.1,2.4l-1,3.1h-2.3L235.4,7l0.5-1.9c0-0.3-0.1-0.5-0.3-0.7c-0.2-0.2-0.5-0.3-0.8-0.3
		c-0.2,0-0.5,0-0.8,0.1l-0.3,0V3.6L239,2.7z"/>
	<path fill="#1F1D20" d="M251.4,18.8c-0.1,0.5-0.1,0.9-0.1,1.3c0,0.9,0.3,1.7,1,2.3c0.6,0.6,1.4,1,2.4,1c0.7,0,1.4-0.1,2.1-0.5
		c0.7-0.3,1.7-1,3-2l0.3,0.4c-2.4,2.4-4.7,3.6-7,3.6c-1.5,0-2.6-0.5-3.4-1.4c-0.8-1-1.1-2-1.1-3.1c0-1.5,0.5-3.1,1.4-4.7
		c0.9-1.6,2.1-2.8,3.6-3.7c1.4-0.9,2.9-1.3,4.4-1.3c1.1,0,1.9,0.2,2.4,0.7c0.5,0.5,0.8,1,0.8,1.6c0,0.8-0.3,1.7-1,2.4
		c-0.9,1-2.2,1.8-3.9,2.5C255.1,18.2,253.5,18.6,251.4,18.8z M251.5,18c1.5-0.2,2.8-0.5,3.7-0.9c1.3-0.6,2.2-1.2,2.8-2
		c0.6-0.8,0.9-1.5,0.9-2.2c0-0.4-0.1-0.8-0.4-1c-0.3-0.3-0.7-0.4-1.2-0.4c-1,0-2.2,0.5-3.3,1.7C253,14.2,252.1,15.9,251.5,18z"/>
	<path fill="#1F1D20" d="M281.2,10.7l-3,10.8c-0.2,0.7-0.3,1.2-0.3,1.3c0,0.2,0,0.3,0.1,0.4c0.1,0.1,0.2,0.1,0.3,0.1
		c0.2,0,0.3-0.1,0.5-0.2c0.6-0.5,1.2-1.1,1.8-2l0.5,0.4c-0.7,1.1-1.5,2-2.5,2.7c-0.7,0.5-1.4,0.8-2,0.8c-0.4,0-0.8-0.1-1-0.4
		c-0.3-0.3-0.4-0.6-0.4-1c0-0.4,0.1-1,0.4-1.9l2-6.9c0.3-1.1,0.5-1.8,0.5-2.1c0-0.2-0.1-0.4-0.2-0.6c-0.2-0.1-0.4-0.2-0.7-0.2
		c-0.2,0-0.7,0.1-1.4,0.2v-0.6L281.2,10.7z M281,4.5c0.4,0,0.8,0.1,1.1,0.5c0.3,0.3,0.4,0.7,0.4,1.1s-0.2,0.8-0.5,1.1
		c-0.3,0.3-0.7,0.5-1.1,0.5c-0.4,0-0.8-0.1-1.1-0.5c-0.3-0.3-0.5-0.7-0.5-1.1s0.1-0.8,0.4-1.1C280.2,4.7,280.6,4.5,281,4.5z"/>
	<path fill="#1F1D20" d="M291.9,10.7l-2.1,7c1.9-2.9,3.4-4.7,4.4-5.7c1-0.9,2-1.4,2.9-1.4c0.5,0,0.9,0.2,1.3,0.5
		c0.3,0.3,0.5,0.8,0.5,1.3c0,0.6-0.1,1.4-0.4,2.5l-1.9,6.5c-0.2,0.8-0.3,1.2-0.3,1.4c0,0.1,0,0.3,0.1,0.4c0.1,0.1,0.2,0.1,0.3,0.1
		c0.1,0,0.3-0.1,0.4-0.2c0.5-0.4,1.1-1.1,1.8-2l0.5,0.3c-0.9,1.4-1.8,2.3-2.7,2.9c-0.6,0.4-1.1,0.6-1.6,0.6c-0.4,0-0.7-0.1-0.9-0.3
		c-0.2-0.2-0.3-0.5-0.3-0.9c0-0.5,0.2-1.3,0.5-2.5l1.8-6.2c0.2-0.8,0.3-1.4,0.3-1.8c0-0.2-0.1-0.4-0.2-0.5c-0.1-0.1-0.3-0.2-0.5-0.2
		c-0.3,0-0.6,0.1-1,0.4c-0.8,0.5-1.6,1.2-2.4,2.3c-0.8,1.1-1.7,2.4-2.6,4.1c-0.5,0.9-0.9,1.8-1.2,2.9l-0.8,2.5h-2.3l2.8-9.6
		c0.3-1.2,0.5-1.9,0.5-2.1c0-0.2-0.1-0.4-0.3-0.6c-0.2-0.2-0.4-0.3-0.7-0.3c-0.1,0-0.3,0-0.7,0.1l-0.6,0.1l-0.1-0.5L291.9,10.7z"/>
	<path fill="#1F1D20" d="M314.3,10.7l-0.9,4.7h-0.6c0-1.4-0.3-2.4-0.9-3c-0.5-0.6-1.2-0.9-2-0.9c-0.6,0-1.1,0.2-1.5,0.5
		c-0.4,0.4-0.6,0.8-0.6,1.3c0,0.3,0.1,0.7,0.2,1c0.2,0.3,0.5,0.7,1,1.3c1.3,1.5,2.2,2.6,2.6,3.3c0.4,0.7,0.6,1.4,0.6,2.1
		c0,1.1-0.4,2-1.3,2.8c-0.9,0.8-2,1.2-3.4,1.2c-0.7,0-1.6-0.2-2.6-0.5c-0.3-0.1-0.6-0.2-0.8-0.2c-0.5,0-0.8,0.2-1,0.7h-0.6l0.9-5
		h0.6c0.1,1.6,0.4,2.6,1,3.3c0.6,0.6,1.4,1,2.4,1c0.8,0,1.4-0.2,1.9-0.6c0.5-0.4,0.7-1,0.7-1.6c0-0.4-0.1-0.8-0.3-1.1
		c-0.3-0.6-0.9-1.5-1.8-2.6c-0.9-1.1-1.5-1.9-1.8-2.5c-0.3-0.5-0.4-1.1-0.4-1.6c0-1,0.4-1.8,1.1-2.5c0.7-0.7,1.7-1,2.8-1
		c0.3,0,0.6,0,0.9,0.1c0.1,0,0.5,0.1,1,0.3c0.5,0.2,0.9,0.3,1.1,0.3c0.4,0,0.8-0.2,1.1-0.7H314.3z"/>
	<path fill="#1F1D20" d="M324.6,10.7l-3.1,10.8c-0.2,0.7-0.3,1.2-0.3,1.3c0,0.2,0,0.3,0.1,0.4c0.1,0.1,0.2,0.1,0.3,0.1
		c0.2,0,0.3-0.1,0.6-0.2c0.6-0.5,1.2-1.1,1.8-2l0.5,0.4c-0.7,1.1-1.5,2-2.5,2.7c-0.7,0.5-1.4,0.8-2,0.8c-0.4,0-0.8-0.1-1-0.4
		c-0.3-0.3-0.4-0.6-0.4-1c0-0.4,0.1-1,0.4-1.9l2-6.9c0.3-1.1,0.5-1.8,0.5-2.1c0-0.2-0.1-0.4-0.2-0.6c-0.2-0.1-0.4-0.2-0.7-0.2
		c-0.2,0-0.7,0.1-1.4,0.2v-0.6L324.6,10.7z M324.4,4.5c0.4,0,0.8,0.1,1.1,0.5c0.3,0.3,0.4,0.7,0.4,1.1s-0.2,0.8-0.5,1.1
		c-0.3,0.3-0.7,0.5-1.1,0.5c-0.4,0-0.8-0.1-1.1-0.5c-0.3-0.3-0.5-0.7-0.5-1.1s0.1-0.8,0.4-1.1C323.6,4.7,323.9,4.5,324.4,4.5z"/>
	<path fill="#1F1D20" d="M345.3,2.7L340,20.9c-0.3,1-0.4,1.6-0.4,1.9c0,0.1,0,0.2,0.1,0.3c0.1,0.1,0.2,0.1,0.3,0.1
		c0.1,0,0.3-0.1,0.5-0.2c0.3-0.2,0.9-0.9,1.8-1.8l0.5,0.3c-0.7,1-1.5,1.9-2.2,2.5c-0.8,0.6-1.5,1-2.1,1c-0.3,0-0.6-0.1-0.9-0.4
		c-0.2-0.2-0.3-0.6-0.3-1c0-0.6,0.2-1.4,0.5-2.4l0.6-1.9c-1.5,2.3-2.8,3.9-4.1,4.8c-0.8,0.6-1.6,0.9-2.4,0.9c-0.8,0-1.5-0.3-2-1
		c-0.6-0.7-0.9-1.6-0.9-2.8c0-1.5,0.5-3.2,1.5-4.9c1-1.7,2.3-3.1,3.9-4.2c1.3-0.9,2.4-1.3,3.5-1.3c0.6,0,1,0.1,1.4,0.3
		c0.4,0.2,0.8,0.6,1.2,1.1l1.5-5.4c0.1-0.4,0.2-0.7,0.3-0.9c0.1-0.4,0.2-0.7,0.2-1c0-0.2-0.1-0.4-0.2-0.5c-0.2-0.2-0.5-0.3-0.8-0.3
		c-0.2,0-0.6,0-1.2,0.1V3.6L345.3,2.7z M339.6,13.6c0-0.7-0.2-1.2-0.6-1.6c-0.4-0.4-0.9-0.6-1.4-0.6c-1.3,0-2.6,1.1-4,3.2
		c-1.4,2.1-2.1,4.2-2.1,6.1c0,0.8,0.2,1.4,0.5,1.8c0.3,0.4,0.7,0.6,1.2,0.6c1.1,0,2.4-1.2,4-3.5C338.8,17.4,339.6,15.4,339.6,13.6z"
		/>
	<path fill="#1F1D20" d="M350,18.8c-0.1,0.5-0.1,0.9-0.1,1.3c0,0.9,0.3,1.7,1,2.3c0.6,0.6,1.4,1,2.4,1c0.7,0,1.4-0.1,2.1-0.5
		c0.7-0.3,1.7-1,3-2l0.3,0.4c-2.4,2.4-4.7,3.6-7,3.6c-1.5,0-2.6-0.5-3.4-1.4c-0.8-1-1.1-2-1.1-3.1c0-1.5,0.5-3.1,1.4-4.7
		c0.9-1.6,2.1-2.8,3.6-3.7c1.4-0.9,2.9-1.3,4.4-1.3c1.1,0,1.9,0.2,2.4,0.7c0.5,0.5,0.8,1,0.8,1.6c0,0.8-0.3,1.7-1,2.4
		c-0.9,1-2.2,1.8-3.9,2.5C353.7,18.2,352.1,18.6,350,18.8z M350.1,18c1.5-0.2,2.8-0.5,3.7-0.9c1.3-0.6,2.2-1.2,2.8-2
		c0.6-0.8,0.9-1.5,0.9-2.2c0-0.4-0.1-0.8-0.4-1c-0.3-0.3-0.7-0.4-1.2-0.4c-1,0-2.2,0.5-3.3,1.7C351.5,14.2,350.7,15.9,350.1,18z"/>
</g>
<g>
	<path fill="#1F1D20" d="M27.4,54.6c0,0.6-0.1,1.2-0.1,1.8c-0.1,0.6-0.2,1.1-0.4,1.7c-0.2,0.5-0.5,1-0.9,1.4c-0.5,0.5-1,0.8-1.7,1
		c-0.7,0.2-1.4,0.4-2.2,0.4h-5.2V45.4H22c1.6,0,2.9,0.5,3.8,1.4c0.4,0.4,0.7,0.8,0.9,1.3c0.2,0.5,0.3,1,0.4,1.5
		c0.1,0.5,0.1,1.1,0.1,1.6c0,0.6,0,1.1,0,1.6C27.4,53.4,27.4,54,27.4,54.6z M26.2,51.5c0-0.5,0-1-0.1-1.4c-0.1-0.5-0.2-0.9-0.3-1.3
		c-0.2-0.4-0.4-0.8-0.7-1.1c-0.5-0.5-1-0.8-1.5-0.9c-0.6-0.2-1.2-0.3-1.8-0.3H18v13.3h3.7c0.6,0,1.2-0.1,1.8-0.2
		c0.6-0.2,1.1-0.5,1.5-1c0.3-0.3,0.5-0.7,0.7-1.2c0.2-0.5,0.3-1,0.3-1.5c0.1-0.5,0.1-1,0.1-1.6c0-0.5,0-1,0-1.4
		C26.2,52.5,26.2,52,26.2,51.5z"/>
	<path fill="#1F1D20" d="M33.7,60.8V45.4H43v1h-8.2v6.1h7v1h-7v6.2H43v1H33.7z"/>
	<path fill="#1F1D20" d="M56.4,59.8c-0.9,0.8-2.2,1.1-3.8,1.1c-0.6,0-1.1,0-1.6-0.1c-0.5-0.1-0.9-0.2-1.3-0.4
		c-0.4-0.2-0.8-0.4-1.2-0.6c-0.4-0.3-0.7-0.6-1.1-0.9l0.8-0.8c0.3,0.3,0.7,0.6,1,0.9c0.3,0.2,0.7,0.4,1,0.6c0.3,0.1,0.7,0.2,1.1,0.3
		c0.4,0,0.8,0.1,1.3,0.1c1.2,0,2.2-0.3,2.9-0.8c0.7-0.5,1.1-1.3,1.1-2.3c0-0.9-0.3-1.6-0.8-2.1c-0.1-0.1-0.3-0.2-0.4-0.3
		c-0.1-0.1-0.3-0.2-0.4-0.2c-0.2-0.1-0.4-0.1-0.6-0.2c-0.2-0.1-0.5-0.1-0.8-0.1l-1.8-0.3c-1.2-0.2-2.1-0.5-2.7-1.1
		c-0.8-0.7-1.2-1.6-1.2-2.8c0-1.3,0.4-2.3,1.3-3.1c0.9-0.8,2-1.1,3.5-1.1c1,0,1.8,0.1,2.4,0.4c0.7,0.3,1.3,0.7,2,1.2l-0.8,0.8
		c-0.2-0.2-0.5-0.4-0.7-0.6c-0.2-0.2-0.5-0.3-0.8-0.4c-0.3-0.1-0.6-0.2-1-0.3c-0.4-0.1-0.8-0.1-1.2-0.1c-1.1,0-2,0.3-2.6,0.9
		c-0.6,0.6-0.9,1.4-0.9,2.3c0,0.9,0.3,1.6,0.8,2c0.3,0.2,0.6,0.4,1,0.6c0.4,0.2,0.8,0.3,1.3,0.4l1.7,0.3c0.4,0,0.7,0.1,1,0.2
		c0.3,0.1,0.5,0.1,0.7,0.2s0.4,0.2,0.6,0.3c0.2,0.1,0.3,0.2,0.5,0.4c0.4,0.3,0.8,0.8,1,1.3c0.2,0.5,0.4,1.1,0.4,1.7
		C57.8,58,57.3,59,56.4,59.8z"/>
	<path fill="#1F1D20" d="M63.6,60.8V45.4h1.2v15.4H63.6z"/>
	<path fill="#1F1D20" d="M81.3,57.6c-0.2,0.6-0.5,1.1-1,1.6c-0.5,0.5-1.1,1-1.8,1.3c-0.7,0.3-1.4,0.5-2.2,0.5
		c-0.7,0-1.4-0.1-2.1-0.4c-0.7-0.3-1.3-0.7-1.8-1.2c-0.3-0.4-0.6-0.7-0.8-1.1c-0.2-0.4-0.3-0.8-0.4-1.3c-0.1-0.5-0.1-1-0.2-1.7
		c0-0.6,0-1.4,0-2.2c0-0.9,0-1.6,0-2.2c0-0.6,0.1-1.2,0.2-1.6c0.1-0.5,0.2-0.9,0.4-1.3c0.2-0.4,0.5-0.7,0.8-1.1
		c0.5-0.5,1.1-0.9,1.8-1.2c0.7-0.3,1.4-0.4,2.1-0.4c0.7,0,1.3,0.1,1.9,0.3c0.6,0.2,1.1,0.5,1.6,0.9c0.5,0.4,0.8,0.9,1.2,1.4
		c0.3,0.5,0.5,1.2,0.6,1.8h-1.2c-0.2-1.1-0.7-1.9-1.4-2.5c-0.7-0.6-1.6-0.9-2.6-0.9c-0.5,0-1.1,0.1-1.6,0.3c-0.5,0.2-1,0.5-1.3,0.9
		c-0.3,0.3-0.5,0.6-0.6,0.9c-0.2,0.3-0.3,0.7-0.4,1.1c-0.1,0.4-0.1,0.9-0.2,1.5s0,1.3,0,2.1c0,0.8,0,1.5,0,2.1s0.1,1.1,0.2,1.5
		c0.1,0.4,0.2,0.8,0.4,1.1c0.2,0.3,0.4,0.6,0.6,0.9c0.4,0.4,0.8,0.7,1.3,0.9c0.5,0.2,1,0.3,1.6,0.3c0.6,0,1.2-0.1,1.8-0.4
		c0.6-0.3,1-0.6,1.4-1.1c0.3-0.4,0.6-0.9,0.7-1.3c0.1-0.5,0.2-1,0.2-1.7V54h-4.1v-1h5.3v2.5C81.6,56.3,81.5,57,81.3,57.6z"/>
	<path fill="#1F1D20" d="M97.9,60.8L89,47.4v13.4h-1.2V45.4H89l8.9,13.3V45.4h1.2v15.4H97.9z"/>
	<path fill="#1F1D20" d="M113.1,55.6v-1h5.7v1H113.1z"/>
	<path fill="#1F1D20" d="M132.7,60.8V45.4h1.2v15.4H132.7z"/>
	<path fill="#1F1D20" d="M150.8,60.8l-8.9-13.4v13.4h-1.2V45.4h1.2l8.9,13.3V45.4h1.2v15.4H150.8z"/>
	<path fill="#1F1D20" d="M162.9,46.5v14.3h-1.2V46.5h-4.6v-1h10.3v1H162.9z"/>
	<path fill="#1F1D20" d="M172.7,60.8V45.4h9.3v1h-8.2v6.1h7v1h-7v6.2h8.2v1H172.7z"/>
	<path fill="#1F1D20" d="M196.8,60.8l-3.7-7.1h-4.2v7.1h-1.2V45.4h5.9c0.6,0,1.2,0.1,1.7,0.3c0.5,0.2,1,0.4,1.4,0.8
		c0.4,0.3,0.7,0.8,0.9,1.3c0.2,0.5,0.3,1.1,0.3,1.8c0,1.2-0.3,2.1-1,2.8c-0.6,0.7-1.5,1.2-2.6,1.3l3.7,7.1H196.8z M196.6,48.2
		c-0.2-0.4-0.4-0.7-0.7-1c-0.3-0.3-0.7-0.5-1.1-0.6c-0.4-0.1-0.9-0.2-1.4-0.2h-4.5v6.2h4.5c0.5,0,0.9,0,1.4-0.2
		c0.4-0.1,0.8-0.3,1.1-0.6c0.3-0.3,0.5-0.6,0.7-1c0.2-0.4,0.2-0.9,0.2-1.4C196.8,49.1,196.8,48.6,196.6,48.2z"/>
	<path fill="#1F1D20" d="M204.1,60.8V45.4h1.2v15.4H204.1z"/>
	<path fill="#1F1D20" d="M222.1,55.4c0,0.6-0.1,1.2-0.2,1.7c-0.1,0.5-0.2,0.9-0.4,1.3c-0.2,0.4-0.5,0.7-0.8,1.1
		c-0.5,0.5-1.1,0.9-1.8,1.2c-0.7,0.3-1.4,0.4-2.1,0.4c-0.7,0-1.4-0.1-2.1-0.4c-0.7-0.3-1.2-0.7-1.7-1.2c-0.3-0.4-0.6-0.7-0.8-1.1
		c-0.2-0.4-0.3-0.8-0.4-1.3c-0.1-0.5-0.2-1-0.2-1.7c0-0.6,0-1.4,0-2.2c0-0.9,0-1.6,0-2.2c0-0.6,0.1-1.2,0.2-1.6
		c0.1-0.5,0.2-0.9,0.4-1.3c0.2-0.4,0.5-0.7,0.8-1.1c0.5-0.5,1.1-0.9,1.7-1.2c0.7-0.3,1.4-0.4,2.1-0.4c0.7,0,1.4,0.1,2.1,0.4
		c0.7,0.3,1.2,0.7,1.8,1.2c0.3,0.3,0.6,0.7,0.8,1.1c0.2,0.4,0.3,0.8,0.4,1.3c0.1,0.5,0.2,1,0.2,1.6c0,0.6,0,1.4,0,2.2
		C222.1,54,222.1,54.7,222.1,55.4z M220.9,51c0-0.6-0.1-1.1-0.2-1.5c-0.1-0.4-0.2-0.8-0.4-1.1c-0.2-0.3-0.4-0.6-0.7-0.9
		c-0.4-0.4-0.8-0.7-1.3-0.9c-0.5-0.2-1-0.3-1.6-0.3c-0.5,0-1.1,0.1-1.6,0.3c-0.5,0.2-0.9,0.5-1.3,0.9c-0.3,0.3-0.5,0.6-0.6,0.9
		c-0.2,0.3-0.3,0.7-0.4,1.1c-0.1,0.4-0.1,0.9-0.2,1.5c0,0.6,0,1.3,0,2.1c0,0.8,0,1.5,0,2.1c0,0.6,0.1,1.1,0.2,1.5
		c0.1,0.4,0.2,0.8,0.4,1.1c0.2,0.3,0.4,0.6,0.6,0.9c0.4,0.4,0.8,0.7,1.3,0.9c0.5,0.2,1,0.3,1.6,0.3c0.5,0,1.1-0.1,1.6-0.3
		c0.5-0.2,0.9-0.5,1.3-0.9c0.3-0.3,0.5-0.6,0.7-0.9c0.2-0.3,0.3-0.7,0.4-1.1c0.1-0.4,0.1-0.9,0.2-1.5c0-0.6,0-1.3,0-2.1
		C220.9,52.3,220.9,51.6,220.9,51z"/>
	<path fill="#1F1D20" d="M237.5,60.8l-3.7-7.1h-4.2v7.1h-1.2V45.4h5.9c0.6,0,1.2,0.1,1.7,0.3c0.5,0.2,1,0.4,1.4,0.8
		c0.4,0.3,0.7,0.8,0.9,1.3c0.2,0.5,0.3,1.1,0.3,1.8c0,1.2-0.3,2.1-1,2.8c-0.6,0.7-1.5,1.2-2.6,1.3l3.7,7.1H237.5z M237.3,48.2
		c-0.2-0.4-0.4-0.7-0.7-1c-0.3-0.3-0.7-0.5-1.1-0.6c-0.4-0.1-0.9-0.2-1.4-0.2h-4.5v6.2h4.5c0.5,0,0.9,0,1.4-0.2
		c0.4-0.1,0.8-0.3,1.1-0.6c0.3-0.3,0.5-0.6,0.7-1c0.2-0.4,0.2-0.9,0.2-1.4C237.5,49.1,237.4,48.6,237.3,48.2z"/>
	<path fill="#1F1D20" d="M251.8,55.6v-1h5.7v1H251.8z"/>
	<path fill="#1F1D20" d="M279.1,59.8c-0.9,0.8-2.2,1.1-3.8,1.1c-0.6,0-1.1,0-1.6-0.1c-0.5-0.1-0.9-0.2-1.3-0.4
		c-0.4-0.2-0.8-0.4-1.2-0.6c-0.4-0.3-0.7-0.6-1.1-0.9l0.8-0.8c0.4,0.3,0.7,0.6,1,0.9c0.3,0.2,0.7,0.4,1,0.6c0.3,0.1,0.7,0.2,1.1,0.3
		c0.4,0,0.8,0.1,1.3,0.1c1.2,0,2.2-0.3,2.9-0.8c0.7-0.5,1.1-1.3,1.1-2.3c0-0.9-0.3-1.6-0.8-2.1c-0.1-0.1-0.3-0.2-0.4-0.3
		c-0.1-0.1-0.3-0.2-0.4-0.2c-0.2-0.1-0.4-0.1-0.6-0.2c-0.2-0.1-0.5-0.1-0.8-0.1l-1.8-0.3c-1.2-0.2-2.1-0.5-2.7-1.1
		c-0.8-0.7-1.2-1.6-1.2-2.8c0-1.3,0.4-2.3,1.3-3.1c0.9-0.8,2-1.1,3.5-1.1c1,0,1.8,0.1,2.4,0.4c0.7,0.3,1.3,0.7,2,1.2l-0.8,0.8
		c-0.2-0.2-0.5-0.4-0.7-0.6c-0.2-0.2-0.5-0.3-0.8-0.4c-0.3-0.1-0.6-0.2-1-0.3c-0.4-0.1-0.8-0.1-1.2-0.1c-1.1,0-2,0.3-2.6,0.9
		c-0.6,0.6-0.9,1.4-0.9,2.3c0,0.9,0.3,1.6,0.8,2c0.3,0.2,0.6,0.4,1,0.6c0.4,0.2,0.8,0.3,1.3,0.4l1.7,0.3c0.4,0,0.7,0.1,1,0.2
		c0.3,0.1,0.5,0.1,0.7,0.2c0.2,0.1,0.4,0.2,0.6,0.3c0.2,0.1,0.3,0.2,0.5,0.4c0.4,0.3,0.7,0.8,1,1.3c0.2,0.5,0.4,1.1,0.4,1.7
		C280.5,58,280,59,279.1,59.8z"/>
	<path fill="#1F1D20" d="M286.3,60.8V45.4h9.3v1h-8.2v6.1h7v1h-7v6.2h8.2v1H286.3z"/>
	<path fill="#1F1D20" d="M310.4,60.8l-3.7-7.1h-4.2v7.1h-1.2V45.4h5.9c0.6,0,1.2,0.1,1.7,0.3c0.5,0.2,1,0.4,1.4,0.8
		c0.4,0.3,0.7,0.8,0.9,1.3c0.2,0.5,0.3,1.1,0.3,1.8c0,1.2-0.3,2.1-1,2.8c-0.6,0.7-1.5,1.2-2.6,1.3l3.7,7.1H310.4z M310.2,48.2
		c-0.2-0.4-0.4-0.7-0.7-1c-0.3-0.3-0.7-0.5-1.1-0.6c-0.4-0.1-0.9-0.2-1.4-0.2h-4.5v6.2h4.5c0.5,0,0.9,0,1.4-0.2
		c0.4-0.1,0.8-0.3,1.1-0.6c0.3-0.3,0.5-0.6,0.7-1c0.2-0.4,0.3-0.9,0.3-1.4C310.5,49.1,310.4,48.6,310.2,48.2z"/>
	<path fill="#1F1D20" d="M321.6,60.8h-1l-5-15.4h1.2l4.3,13.3l4.3-13.3h1.2L321.6,60.8z"/>
	<path fill="#1F1D20" d="M331.4,60.8V45.4h1.2v15.4H331.4z"/>
	<path fill="#1F1D20" d="M348.7,58.3c-0.3,0.5-0.7,1-1.1,1.4c-0.5,0.4-1,0.7-1.6,0.9c-0.6,0.2-1.2,0.3-1.9,0.3
		c-0.7,0-1.4-0.1-2.1-0.4c-0.7-0.3-1.2-0.7-1.7-1.2c-0.3-0.4-0.6-0.7-0.8-1.1c-0.2-0.4-0.3-0.8-0.4-1.3c-0.1-0.5-0.1-1-0.2-1.7
		c0-0.6,0-1.4,0-2.2c0-0.9,0-1.6,0-2.2c0-0.6,0.1-1.2,0.2-1.6c0.1-0.5,0.2-0.9,0.4-1.3c0.2-0.4,0.5-0.7,0.8-1.1
		c0.5-0.5,1.1-0.9,1.7-1.2c0.7-0.3,1.4-0.4,2.1-0.4c0.7,0,1.3,0.1,1.9,0.3c0.6,0.2,1.1,0.5,1.5,0.9c0.4,0.4,0.8,0.9,1.1,1.4
		c0.3,0.6,0.5,1.2,0.6,1.9h-1.2c-0.2-1.1-0.7-1.9-1.4-2.5c-0.7-0.6-1.6-0.9-2.6-0.9c-0.5,0-1.1,0.1-1.6,0.3c-0.5,0.2-1,0.5-1.3,0.9
		c-0.3,0.3-0.5,0.6-0.6,0.9c-0.2,0.3-0.3,0.7-0.4,1.1c-0.1,0.4-0.1,0.9-0.1,1.5c0,0.6,0,1.3,0,2.1c0,0.8,0,1.5,0,2.1
		c0,0.6,0.1,1.1,0.1,1.5c0.1,0.4,0.2,0.8,0.4,1.1c0.2,0.3,0.4,0.6,0.6,0.9c0.4,0.4,0.8,0.7,1.3,0.9c0.5,0.2,1,0.3,1.6,0.3
		c1,0,1.9-0.3,2.6-0.9c0.7-0.6,1.2-1.5,1.4-2.5h1.1C349.2,57.2,349,57.8,348.7,58.3z"/>
	<path fill="#1F1D20" d="M355.5,60.8V45.4h9.3v1h-8.2v6.1h7v1h-7v6.2h8.2v1H355.5z"/>
	<path fill="#1F1D20" d="M378.3,59.8c-0.9,0.8-2.2,1.1-3.8,1.1c-0.6,0-1.1,0-1.6-0.1c-0.5-0.1-0.9-0.2-1.3-0.4
		c-0.4-0.2-0.8-0.4-1.2-0.6c-0.4-0.3-0.7-0.6-1.1-0.9l0.8-0.8c0.3,0.3,0.7,0.6,1,0.9c0.3,0.2,0.7,0.4,1,0.6c0.3,0.1,0.7,0.2,1.1,0.3
		c0.4,0,0.8,0.1,1.3,0.1c1.2,0,2.2-0.3,2.9-0.8c0.7-0.5,1.1-1.3,1.1-2.3c0-0.9-0.3-1.6-0.8-2.1c-0.1-0.1-0.3-0.2-0.4-0.3
		c-0.1-0.1-0.3-0.2-0.4-0.2c-0.2-0.1-0.4-0.1-0.6-0.2c-0.2-0.1-0.5-0.1-0.8-0.1l-1.8-0.3c-1.2-0.2-2.1-0.5-2.7-1.1
		c-0.8-0.7-1.2-1.6-1.2-2.8c0-1.3,0.4-2.3,1.3-3.1c0.8-0.8,2-1.1,3.5-1.1c0.9,0,1.8,0.1,2.4,0.4c0.7,0.3,1.3,0.7,2,1.2l-0.8,0.8
		c-0.2-0.2-0.5-0.4-0.7-0.6c-0.2-0.2-0.5-0.3-0.8-0.4c-0.3-0.1-0.6-0.2-1-0.3c-0.4-0.1-0.8-0.1-1.2-0.1c-1.1,0-2,0.3-2.6,0.9
		c-0.6,0.6-0.9,1.4-0.9,2.3c0,0.9,0.3,1.6,0.8,2c0.3,0.2,0.6,0.4,1,0.6c0.4,0.2,0.8,0.3,1.3,0.4l1.7,0.3c0.4,0,0.7,0.1,1,0.2
		c0.3,0.1,0.5,0.1,0.7,0.2s0.4,0.2,0.6,0.3c0.2,0.1,0.3,0.2,0.5,0.4c0.4,0.3,0.7,0.8,1,1.3c0.2,0.5,0.4,1.1,0.4,1.7
		C379.6,58,379.2,59,378.3,59.8z"/>
</g>
</svg>
